<svg width="303" height="81" viewBox="0 0 303 81" fill="none" xmlns="http://www.w3.org/2000/svg">
<path d="M77.896 30.36C76.68 30.36 75.5813 30.5733 74.6 31C73.6187 31.4053 72.7867 32.0133 72.104 32.824C71.4213 33.6133 70.8987 34.584 70.536 35.736C70.1733 36.8667 69.992 38.1467 69.992 39.576C69.992 41.4533 70.28 43.0853 70.856 44.472C71.4533 45.8587 72.328 46.9253 73.48 47.672C74.6533 48.4187 76.1147 48.792 77.864 48.792C78.8667 48.792 79.816 48.7067 80.712 48.536C81.608 48.3653 82.4827 48.152 83.336 47.896V50.392C82.4827 50.712 81.5973 50.9467 80.68 51.096C79.784 51.2453 78.7067 51.32 77.448 51.32C75.1227 51.32 73.1813 50.84 71.624 49.88C70.0667 48.92 68.8933 47.5547 68.104 45.784C67.336 44.0133 66.952 41.9333 66.952 39.544C66.952 37.816 67.1867 36.2373 67.656 34.808C68.1467 33.3787 68.8507 32.1413 69.768 31.096C70.7067 30.0507 71.8587 29.2507 73.224 28.696C74.5893 28.12 76.1573 27.832 77.928 27.832C79.1013 27.832 80.232 27.9493 81.32 28.184C82.408 28.4187 83.3787 28.7493 84.232 29.176L83.08 31.608C82.376 31.288 81.5867 31 80.712 30.744C79.8587 30.488 78.92 30.36 77.896 30.36ZM95.9388 33.528C96.2588 33.528 96.6001 33.5493 96.9628 33.592C97.3468 33.6133 97.6774 33.656 97.9548 33.72L97.6028 36.312C97.3254 36.248 97.0161 36.1947 96.6748 36.152C96.3548 36.1093 96.0454 36.088 95.7468 36.088C95.0854 36.088 94.4561 36.2267 93.8588 36.504C93.2614 36.7813 92.7281 37.176 92.2588 37.688C91.7894 38.1787 91.4161 38.776 91.1388 39.48C90.8828 40.184 90.7548 40.9733 90.7548 41.848V51H87.9388V33.848H90.2428L90.5628 36.984H90.6908C91.0534 36.344 91.4908 35.768 92.0028 35.256C92.5148 34.7227 93.1014 34.3067 93.7628 34.008C94.4241 33.688 95.1494 33.528 95.9388 33.528ZM103.974 33.848V51H101.158V33.848H103.974ZM102.598 27.416C103.024 27.416 103.398 27.5653 103.718 27.864C104.059 28.1413 104.23 28.5893 104.23 29.208C104.23 29.8053 104.059 30.2533 103.718 30.552C103.398 30.8507 103.024 31 102.598 31C102.128 31 101.734 30.8507 101.414 30.552C101.094 30.2533 100.934 29.8053 100.934 29.208C100.934 28.5893 101.094 28.1413 101.414 27.864C101.734 27.5653 102.128 27.416 102.598 27.416ZM128.224 33.528C130.165 33.528 131.616 34.0293 132.576 35.032C133.536 36.0133 134.016 37.6133 134.016 39.832V51H131.232V39.96C131.232 38.616 130.944 37.6027 130.368 36.92C129.813 36.2373 128.938 35.896 127.744 35.896C126.08 35.896 124.885 36.376 124.16 37.336C123.456 38.296 123.104 39.6933 123.104 41.528V51H120.32V39.96C120.32 39.064 120.192 38.3173 119.936 37.72C119.68 37.1013 119.296 36.6427 118.784 36.344C118.272 36.0453 117.61 35.896 116.8 35.896C115.648 35.896 114.741 36.1413 114.08 36.632C113.418 37.1013 112.938 37.7947 112.64 38.712C112.362 39.6293 112.224 40.76 112.224 42.104V51H109.408V33.848H111.68L112.096 36.184H112.256C112.618 35.5867 113.056 35.096 113.568 34.712C114.101 34.3067 114.688 34.008 115.328 33.816C115.968 33.624 116.629 33.528 117.312 33.528C118.634 33.528 119.733 33.7627 120.608 34.232C121.504 34.7013 122.154 35.4267 122.56 36.408H122.72C123.296 35.4267 124.074 34.7013 125.056 34.232C126.058 33.7627 127.114 33.528 128.224 33.528ZM150.482 46.264C150.482 47.3733 150.204 48.3013 149.65 49.048C149.095 49.7947 148.306 50.36 147.282 50.744C146.258 51.128 145.042 51.32 143.634 51.32C142.439 51.32 141.404 51.224 140.53 51.032C139.676 50.84 138.919 50.5733 138.258 50.232V47.672C138.94 48.0133 139.762 48.3333 140.722 48.632C141.703 48.9093 142.695 49.048 143.698 49.048C145.127 49.048 146.162 48.824 146.802 48.376C147.442 47.9067 147.762 47.288 147.762 46.52C147.762 46.0933 147.644 45.7093 147.41 45.368C147.175 45.0267 146.748 44.6853 146.13 44.344C145.532 44.0027 144.668 43.6187 143.538 43.192C142.428 42.7653 141.479 42.3387 140.69 41.912C139.9 41.4853 139.292 40.9733 138.866 40.376C138.439 39.7787 138.226 39.0107 138.226 38.072C138.226 36.6213 138.812 35.5013 139.986 34.712C141.18 33.9227 142.738 33.528 144.658 33.528C145.703 33.528 146.674 33.6347 147.57 33.848C148.487 34.04 149.34 34.3173 150.13 34.68L149.17 36.92C148.7 36.7067 148.199 36.5253 147.666 36.376C147.154 36.2053 146.631 36.0773 146.098 35.992C145.564 35.8853 145.02 35.832 144.466 35.832C143.314 35.832 142.428 36.024 141.81 36.408C141.212 36.7707 140.914 37.272 140.914 37.912C140.914 38.3813 141.052 38.7867 141.33 39.128C141.607 39.448 142.066 39.768 142.706 40.088C143.367 40.3867 144.242 40.7493 145.33 41.176C146.418 41.5813 147.346 41.9973 148.114 42.424C148.882 42.8507 149.468 43.3733 149.874 43.992C150.279 44.5893 150.482 45.3467 150.482 46.264ZM169.538 42.392C169.538 43.8213 169.346 45.0907 168.962 46.2C168.6 47.288 168.066 48.216 167.362 48.984C166.68 49.752 165.837 50.3387 164.834 50.744C163.853 51.128 162.754 51.32 161.538 51.32C160.408 51.32 159.362 51.128 158.402 50.744C157.442 50.3387 156.61 49.752 155.906 48.984C155.202 48.216 154.648 47.288 154.242 46.2C153.858 45.0907 153.666 43.8213 153.666 42.392C153.666 40.4933 153.986 38.8933 154.626 37.592C155.266 36.2693 156.184 35.2667 157.378 34.584C158.573 33.88 159.992 33.528 161.634 33.528C163.192 33.528 164.557 33.88 165.73 34.584C166.925 35.2667 167.853 36.2693 168.514 37.592C169.197 38.8933 169.538 40.4933 169.538 42.392ZM156.578 42.392C156.578 43.736 156.749 44.9093 157.09 45.912C157.453 46.8933 158.008 47.6507 158.754 48.184C159.501 48.7173 160.45 48.984 161.602 48.984C162.754 48.984 163.704 48.7173 164.45 48.184C165.197 47.6507 165.741 46.8933 166.082 45.912C166.445 44.9093 166.626 43.736 166.626 42.392C166.626 41.0267 166.445 39.864 166.082 38.904C165.72 37.944 165.165 37.208 164.418 36.696C163.693 36.1627 162.744 35.896 161.57 35.896C159.821 35.896 158.552 36.472 157.762 37.624C156.973 38.776 156.578 40.3653 156.578 42.392ZM182.257 33.528C184.305 33.528 185.852 34.0293 186.897 35.032C187.943 36.0133 188.465 37.6133 188.465 39.832V51H185.681V40.024C185.681 38.6373 185.372 37.6027 184.753 36.92C184.135 36.2373 183.164 35.896 181.841 35.896C179.943 35.896 178.631 36.4293 177.905 37.496C177.18 38.5627 176.817 40.0987 176.817 42.104V51H174.001V33.848H176.273L176.689 36.184H176.849C177.233 35.5867 177.703 35.096 178.257 34.712C178.833 34.3067 179.463 34.008 180.145 33.816C180.828 33.624 181.532 33.528 182.257 33.528ZM219.138 28.152L210.978 51H208.098L199.938 28.152H202.946L208.098 42.808C208.332 43.4267 208.535 44.024 208.706 44.6C208.876 45.176 209.026 45.7307 209.154 46.264C209.303 46.776 209.431 47.288 209.538 47.8C209.644 47.288 209.762 46.7653 209.89 46.232C210.039 45.6987 210.199 45.144 210.37 44.568C210.562 43.992 210.764 43.384 210.978 42.744L216.097 28.152H219.138ZM224.661 33.848V51H221.845V33.848H224.661ZM223.285 27.416C223.712 27.416 224.085 27.5653 224.405 27.864C224.746 28.1413 224.917 28.5893 224.917 29.208C224.917 29.8053 224.746 30.2533 224.405 30.552C224.085 30.8507 223.712 31 223.285 31C222.816 31 222.421 30.8507 222.101 30.552C221.781 30.2533 221.621 29.8053 221.621 29.208C221.621 28.5893 221.781 28.1413 222.101 27.864C222.421 27.5653 222.816 27.416 223.285 27.416ZM241.263 46.264C241.263 47.3733 240.986 48.3013 240.431 49.048C239.876 49.7947 239.087 50.36 238.063 50.744C237.039 51.128 235.823 51.32 234.415 51.32C233.22 51.32 232.186 51.224 231.311 51.032C230.458 50.84 229.7 50.5733 229.039 50.232V47.672C229.722 48.0133 230.543 48.3333 231.503 48.632C232.484 48.9093 233.476 49.048 234.479 49.048C235.908 49.048 236.943 48.824 237.583 48.376C238.223 47.9067 238.543 47.288 238.543 46.52C238.543 46.0933 238.426 45.7093 238.191 45.368C237.956 45.0267 237.53 44.6853 236.911 44.344C236.314 44.0027 235.45 43.6187 234.319 43.192C233.21 42.7653 232.26 42.3387 231.471 41.912C230.682 41.4853 230.074 40.9733 229.647 40.376C229.22 39.7787 229.007 39.0107 229.007 38.072C229.007 36.6213 229.594 35.5013 230.767 34.712C231.962 33.9227 233.519 33.528 235.439 33.528C236.484 33.528 237.455 33.6347 238.351 33.848C239.268 34.04 240.122 34.3173 240.911 34.68L239.951 36.92C239.482 36.7067 238.98 36.5253 238.447 36.376C237.935 36.2053 237.412 36.0773 236.879 35.992C236.346 35.8853 235.802 35.832 235.247 35.832C234.095 35.832 233.21 36.024 232.591 36.408C231.994 36.7707 231.695 37.272 231.695 37.912C231.695 38.3813 231.834 38.7867 232.111 39.128C232.388 39.448 232.847 39.768 233.487 40.088C234.148 40.3867 235.023 40.7493 236.111 41.176C237.199 41.5813 238.127 41.9973 238.895 42.424C239.663 42.8507 240.25 43.3733 240.655 43.992C241.06 44.5893 241.263 45.3467 241.263 46.264ZM259.744 33.848V51H257.44L257.024 48.728H256.896C256.533 49.3253 256.064 49.816 255.488 50.2C254.912 50.584 254.282 50.8613 253.6 51.032C252.917 51.224 252.202 51.32 251.456 51.32C250.09 51.32 248.938 51.1067 248 50.68C247.082 50.232 246.389 49.5493 245.92 48.632C245.45 47.7147 245.216 46.5307 245.216 45.08V33.848H248.064V44.888C248.064 46.2533 248.373 47.2773 248.992 47.96C249.61 48.6427 250.57 48.984 251.872 48.984C253.152 48.984 254.154 48.7493 254.88 48.28C255.626 47.7893 256.149 47.0853 256.448 46.168C256.768 45.2293 256.928 44.0987 256.928 42.776V33.848H259.744ZM271.685 33.56C273.775 33.56 275.322 34.0187 276.325 34.936C277.327 35.8533 277.829 37.3147 277.829 39.32V51H275.781L275.237 48.568H275.109C274.618 49.1867 274.106 49.7093 273.573 50.136C273.061 50.5413 272.463 50.84 271.781 51.032C271.119 51.224 270.309 51.32 269.349 51.32C268.325 51.32 267.397 51.1387 266.565 50.776C265.754 50.4133 265.114 49.8587 264.645 49.112C264.175 48.344 263.941 47.384 263.941 46.232C263.941 44.5253 264.613 43.2133 265.957 42.296C267.301 41.3573 269.37 40.8453 272.165 40.76L275.077 40.664V39.64C275.077 38.2107 274.767 37.2187 274.149 36.664C273.53 36.1093 272.655 35.832 271.525 35.832C270.629 35.832 269.775 35.9707 268.965 36.248C268.154 36.504 267.397 36.8027 266.693 37.144L265.829 35.032C266.575 34.6267 267.461 34.2853 268.485 34.008C269.509 33.7093 270.575 33.56 271.685 33.56ZM272.517 42.712C270.383 42.7973 268.901 43.1387 268.069 43.736C267.258 44.3333 266.853 45.176 266.853 46.264C266.853 47.224 267.141 47.928 267.717 48.376C268.314 48.824 269.071 49.048 269.989 49.048C271.439 49.048 272.645 48.6533 273.605 47.864C274.565 47.0533 275.045 45.816 275.045 44.152V42.616L272.517 42.712ZM285.942 51H283.126V26.68H285.942V51ZM302.544 46.264C302.544 47.3733 302.267 48.3013 301.712 49.048C301.158 49.7947 300.368 50.36 299.344 50.744C298.32 51.128 297.104 51.32 295.696 51.32C294.502 51.32 293.467 51.224 292.592 51.032C291.739 50.84 290.982 50.5733 290.32 50.232V47.672C291.003 48.0133 291.824 48.3333 292.784 48.632C293.766 48.9093 294.758 49.048 295.76 49.048C297.19 49.048 298.224 48.824 298.864 48.376C299.504 47.9067 299.824 47.288 299.824 46.52C299.824 46.0933 299.707 45.7093 299.472 45.368C299.238 45.0267 298.811 44.6853 298.192 44.344C297.595 44.0027 296.731 43.6187 295.6 43.192C294.491 42.7653 293.542 42.3387 292.752 41.912C291.963 41.4853 291.355 40.9733 290.928 40.376C290.502 39.7787 290.288 39.0107 290.288 38.072C290.288 36.6213 290.875 35.5013 292.048 34.712C293.243 33.9227 294.8 33.528 296.72 33.528C297.766 33.528 298.736 33.6347 299.632 33.848C300.55 34.04 301.403 34.3173 302.192 34.68L301.232 36.92C300.763 36.7067 300.262 36.5253 299.728 36.376C299.216 36.2053 298.694 36.0773 298.16 35.992C297.627 35.8853 297.083 35.832 296.528 35.832C295.376 35.832 294.491 36.024 293.872 36.408C293.275 36.7707 292.976 37.272 292.976 37.912C292.976 38.3813 293.115 38.7867 293.392 39.128C293.67 39.448 294.128 39.768 294.768 40.088C295.43 40.3867 296.304 40.7493 297.392 41.176C298.48 41.5813 299.408 41.9973 300.176 42.424C300.944 42.8507 301.531 43.3733 301.936 43.992C302.342 44.5893 302.544 45.3467 302.544 46.264Z" fill="black"/>
<rect x="1.77637" width="36.4204" height="36.1243" fill="#FF0000"/>
<rect x="22.208" y="18.0621" width="35.8282" height="35.8282" fill="#190000"/>
<rect y="44.119" width="34.0516" height="36.1243" fill="#BE0000"/>
</svg>
