<svg width="116" height="128" viewBox="0 0 116 128" fill="none" xmlns="http://www.w3.org/2000/svg">
<path d="M114.25 89V39C114.248 36.8079 113.669 34.655 112.572 32.7572C111.475 30.8594 109.898 29.2835 108 28.1875L64.25 3.18747C62.3498 2.09036 60.1942 1.51279 58 1.51279C55.8058 1.51279 53.6502 2.09036 51.75 3.18747L8 28.1875C6.10164 29.2835 4.52488 30.8594 3.42788 32.7572C2.33089 34.655 1.75225 36.8079 1.75 39V89C1.75225 91.192 2.33089 93.3449 3.42788 95.2427C4.52488 97.1405 6.10164 98.7165 8 99.8125L51.75 124.812C53.6502 125.91 55.8058 126.487 58 126.487C60.1942 126.487 62.3498 125.91 64.25 124.812L108 99.8125C109.898 98.7165 111.475 97.1405 112.572 95.2427C113.669 93.3449 114.248 91.192 114.25 89Z" fill="#B10000" stroke="black" stroke-width="2" stroke-linecap="round" stroke-linejoin="round"/>
<path d="M3.43747 32.4999L58 64.0624L112.562 32.4999" fill="#B10000"/>
<path d="M3.43747 32.4999L58 64.0624L112.562 32.4999" stroke="black" stroke-width="2" stroke-linecap="round" stroke-linejoin="round"/>
<path d="M58 127V64" stroke="black" stroke-width="2" stroke-linecap="round" stroke-linejoin="round"/>
</svg>
