<svg width="94" height="94" viewBox="0 0 94 94" fill="none" xmlns="http://www.w3.org/2000/svg">
<path d="M47 93C72.4051 93 93 72.4051 93 47C93 21.5949 72.4051 1 47 1C21.5949 1 1 21.5949 1 47C1 72.4051 21.5949 93 47 93Z" fill="#D00000" stroke="black" stroke-width="2" stroke-linecap="round" stroke-linejoin="round"/>
<path d="M47 74.6C62.2431 74.6 74.6 62.2431 74.6 47C74.6 31.7569 62.2431 19.4 47 19.4C31.7569 19.4 19.4 31.7569 19.4 47C19.4 62.2431 31.7569 74.6 47 74.6Z" fill="#D00000" stroke="black" stroke-width="2" stroke-linecap="round" stroke-linejoin="round"/>
<path d="M47 56.2C52.081 56.2 56.2 52.081 56.2 47C56.2 41.919 52.081 37.8 47 37.8C41.919 37.8 37.8 41.919 37.8 47C37.8 52.081 41.919 56.2 47 56.2Z" fill="#D00000" stroke="black" stroke-width="2" stroke-linecap="round" stroke-linejoin="round"/>
</svg>
